<svg xmlns="http://www.w3.org/2000/svg" width="204.51639" height="215.46351" viewBox="0 0 204.51639 215.46351"><defs></defs><g id="Layer_2" data-name="Layer 2"><g id="Layer_1-2" data-name="Layer 1"><path class="cls-1" d="M94.24206,22.2724H44.61853V.00092H165.41V22.2724H115.54382V202.85151H94.24206Z"/><rect class="cls-1" x="29.13666" width="18.36848" height="35.0564"/><rect class="cls-1" x="161.5605" width="17.61135" height="35.0564"/><rect class="cls-1" x="96.46665" y="191.26288" width="15.26263" height="33.13864" transform="translate(-103.73423 311.93016) rotate(-90)"/><path class="cls-1" d="M75.09668,174.90131a127.163,127.163,0,0,1-31.81055-3.62988A73.3738,73.3738,0,0,1,19.6377,160.92377,44.97793,44.97793,0,0,1,4.98242,144.54,47.13,47.13,0,0,1,0,122.59369a44.62031,44.62031,0,0,1,4.68945-20.47363A44.09087,44.09087,0,0,1,18.51953,86.26752Q27.6631,79.65375,41.417,76.08686A126.86206,126.86206,0,0,1,73.1543,72.52338l121.35156.02637a4.98247,4.98247,0,0,1,2.11524.4209,3.04731,3.04731,0,0,1,1.43554,1.4707,12.06876,12.06876,0,0,1,.90625,2.72949,20.79783,20.79783,0,0,1,.377,4.41016,21.10875,21.10875,0,0,1-.37891,4.30566,10.99535,10.99535,0,0,1-.9082,2.78223,3.09412,3.09412,0,0,1-1.43555,1.417,4.99746,4.99746,0,0,1-2.11524.41992L76.32422,90.47943A107.58625,107.58625,0,0,0,52.59668,92.7851,52.12938,52.12938,0,0,0,35.7461,99.44818a29.70271,29.70271,0,0,0-10.12891,10.499,28.02893,28.02893,0,0,0-3.40234,13.80664,28.96577,28.96577,0,0,0,3.32128,14.01855,28.39544,28.39544,0,0,0,9.97168,10.39649,52.08448,52.08448,0,0,0,16.47071,6.51465,103.52635,103.52635,0,0,0,22.9707,2.26269l119.53906.02539a4.96782,4.96782,0,0,1,2.11524.4209,3.045,3.045,0,0,1,1.43554,1.46973,12.02109,12.02109,0,0,1,.90625,2.7832,21.07879,21.07879,0,0,1,.377,4.35742,20.32636,20.32636,0,0,1-.37891,4.25293,11.0809,11.0809,0,0,1-.9082,2.72949,3.39672,3.39672,0,0,1-1.43555,1.46973,4.50951,4.50951,0,0,1-2.11523.47168Z"/><rect class="cls-1" x="191.20994" y="72.64591" width="13.30646" height="24.30506"/><rect class="cls-1" x="189.84107" y="150.60568" width="13.30646" height="24.30506"/><path class="cls-1" d="M140.44421,186.32807l.69825-91.19336c.26464-34.51172-14.53907-49.2207-34.57374-49.33057-22.26123-.12158-36.62353,14.88477-36.88427,48.93945L68.98621,185.937l-19.58936-.10742.688-89.82226c.3623-47.31055,24.77539-66.605,57.27637-66.42676,30.71972.168,53.73242,18.35058,53.36621,66.11865l-.69434,90.73633Z"/><polygon class="cls-1" points="49.424 182.115 74.789 182.247 74.685 196.374 49.32 196.242 49.424 182.115"/><polygon class="cls-1" points="69.439 132.806 69.55 118.255 142.835 118.657 142.723 133.207 69.439 132.806"/><polygon class="cls-1" points="134.739 182.695 160.104 182.827 160 196.954 134.635 196.822 134.739 182.695"/></g></g></svg>